<svg xmlns="http://www.w3.org/2000/svg" version="1.1" xmlns:xlink="http://www.w3.org/1999/xlink" xmlns:svgjs="http://svgjs.dev/svgjs" width="1500" height="590" viewBox="0 0 1500 590"><g transform="matrix(1,0,0,1,-0.9090909090909918,-0.788326422237219)"><svg viewBox="0 0 396 156" data-background-color="#ffffff" preserveAspectRatio="xMidYMid meet" height="590" width="1500" xmlns="http://www.w3.org/2000/svg" xmlns:xlink="http://www.w3.org/1999/xlink"><g id="tight-bounds" transform="matrix(1,0,0,1,0.2400000000000091,0.20843885062544132)"><svg viewBox="0 0 395.52 155.58312229874912" height="155.58312229874912" width="395.52"><g><svg viewBox="0 0 395.52 155.58312229874912" height="155.58312229874912" width="395.52"><g transform="matrix(1,0,0,1,0,114.31550213462249)"><svg viewBox="0 0 395.52 41.26762016412662" height="41.26762016412662" width="395.52"><g id="textblocktransform"><svg viewBox="0 0 395.52 41.26762016412662" height="41.26762016412662" width="395.52" id="textblock"><g><svg viewBox="0 0 395.52 41.26762016412662" height="41.26762016412662" width="395.52"><g transform="matrix(1,0,0,1,0,0)"><svg width="395.52" viewBox="3.7 -35 341.18 35.6" height="41.26762016412662" data-palette-color="url(#1f3ee67a-f041-4466-b48a-3443db41f91d)"></svg></g></svg></g></svg></g></svg></g><g transform="matrix(1,0,0,1,150.3445436305551,0)"><svg viewBox="0 0 94.83091273888978 94.83091273888978" height="94.83091273888978" width="94.83091273888978"><g><svg></svg></g><g id="icon-0"><svg viewBox="0 0 94.83091273888978 94.83091273888978" height="94.83091273888978" width="94.83091273888978"><g></g><g transform="matrix(1,0,0,1,25.16115713754644,25.16115713754644)"><svg viewBox="0 0 44.5085984637969 44.5085984637969" height="44.5085984637969" width="44.5085984637969"><g><svg version="1.0" xmlns="http://www.w3.org/2000/svg" xmlns:xlink="http://www.w3.org/1999/xlink" x="0" y="0" viewBox="0 0 100 100" enable-background="new 0 0 100 100" xml:space="preserve" height="44.5085984637969" width="44.5085984637969" class="icon-cg-0" data-fill-palette-color="accent" id="cg-0"></svg></g></svg></g></svg></g></svg></g><g></g></svg></g><defs></defs><mask id="ba7bfa64-97b4-4984-8d3c-eaba1b17f260"><g id="SvgjsG6985"><svg viewBox="0 0 395.52 155.58312229874912" height="155.58312229874912" width="395.52"><g><svg viewBox="0 0 395.52 155.58312229874912" height="155.58312229874912" width="395.52"><g transform="matrix(1,0,0,1,0,114.31550213462249)"><svg viewBox="0 0 395.52 41.26762016412662" height="41.26762016412662" width="395.52"><g id="SvgjsG6984"><svg viewBox="0 0 395.52 41.26762016412662" height="41.26762016412662" width="395.52" id="SvgjsSvg6983"><g><svg viewBox="0 0 395.52 41.26762016412662" height="41.26762016412662" width="395.52"><g transform="matrix(1,0,0,1,0,0)"><svg width="395.52" viewBox="3.7 -35 341.18 35.6" height="41.26762016412662" data-palette-color="url(#1f3ee67a-f041-4466-b48a-3443db41f91d)"><path d="M3.7 0L3.7-34.4 31.5-34.4 31.5-26.15 14.75-26.15 14.75-20.25 29.15-20.25 29.15-12.35 14.75-12.35 14.75 0 3.7 0ZM37.05 0L37.05-34.4 48.1-34.4 48.1-8.8 65.75-8.8 65.75 0 37.05 0ZM70.4 0L70.4-34.4 100.15-34.4 100.15-26.15 81.45-26.15 81.45-21.4 97.45-21.4 97.45-13.5 81.45-13.5 81.45-8.25 100.5-8.25 100.5 0 70.4 0ZM106.49 0L106.49-34.4 136.24-34.4 136.24-26.15 117.54-26.15 117.54-21.4 133.54-21.4 133.54-13.5 117.54-13.5 117.54-8.25 136.59-8.25 136.59 0 106.49 0ZM173.64-25.6L162.39-25.6 162.39 0 151.34 0 151.34-25.6 140.04-25.6 140.04-34.4 173.64-34.4 173.64-25.6ZM211.74-35Q219.39-35 223.84-31.18 228.29-27.35 228.29-20.25L228.29-20.25 217.74-20.25Q217.74-23.25 216.16-25 214.59-26.75 211.69-26.75L211.69-26.75Q208.34-26.75 206.76-24.65 205.19-22.55 205.19-18.8L205.19-18.8 205.19-15.6Q205.19-11.9 206.76-9.78 208.34-7.65 211.59-7.65L211.59-7.65Q214.79-7.65 216.44-9.3 218.09-10.95 218.09-13.95L218.09-13.95 228.29-13.95Q228.29-6.9 223.96-3.15 219.64 0.6 211.74 0.6L211.74 0.6Q202.94 0.6 198.41-3.9 193.89-8.4 193.89-17.2L193.89-17.2Q193.89-26 198.41-30.5 202.94-35 211.74-35L211.74-35ZM251.33-35Q260.23-35 265.08-30.45 269.93-25.9 269.93-17.2L269.93-17.2Q269.93-8.5 265.08-3.95 260.23 0.6 251.33 0.6L251.33 0.6Q242.43 0.6 237.61-3.93 232.78-8.45 232.78-17.2L232.78-17.2Q232.78-25.95 237.61-30.48 242.43-35 251.33-35L251.33-35ZM251.33-26.75Q247.78-26.75 245.93-24.6 244.08-22.45 244.08-18.8L244.08-18.8 244.08-15.6Q244.08-11.95 245.93-9.8 247.78-7.65 251.33-7.65L251.33-7.65Q254.88-7.65 256.76-9.8 258.63-11.95 258.63-15.6L258.63-15.6 258.63-18.8Q258.63-22.45 256.76-24.6 254.88-26.75 251.33-26.75L251.33-26.75ZM308.53-23.85Q308.53-20.7 306.83-18.15 305.13-15.6 301.88-14.4L301.88-14.4 309.53 0 297.13 0 291.03-12.55 286.93-12.55 286.93 0 275.88 0 275.88-34.4 296.93-34.4Q300.63-34.4 303.25-32.98 305.88-31.55 307.2-29.13 308.53-26.7 308.53-23.85L308.53-23.85ZM297.28-23.4Q297.28-24.75 296.38-25.65 295.48-26.55 294.18-26.55L294.18-26.55 286.93-26.55 286.93-20.2 294.18-20.2Q295.48-20.2 296.38-21.13 297.28-22.05 297.28-23.4L297.28-23.4ZM314.78 0L314.78-34.4 344.53-34.4 344.53-26.15 325.83-26.15 325.83-21.4 341.83-21.4 341.83-13.5 325.83-13.5 325.83-8.25 344.88-8.25 344.88 0 314.78 0Z" opacity="1" transform="matrix(1,0,0,1,0,0)" fill="white" class="wordmark-text-0" id="SvgjsPath6982"></path></svg></g></svg></g></svg></g></svg></g><g transform="matrix(1,0,0,1,150.3445436305551,0)"><svg viewBox="0 0 94.83091273888978 94.83091273888978" height="94.83091273888978" width="94.83091273888978"><g><svg></svg></g><g id="SvgjsG6981"><svg viewBox="0 0 94.83091273888978 94.83091273888978" height="94.83091273888978" width="94.83091273888978"><g><path d="M0 47.415c0-26.187 21.229-47.415 47.415-47.415 26.187 0 47.415 21.229 47.416 47.415 0 26.187-21.229 47.415-47.416 47.416-26.187 0-47.415-21.229-47.415-47.416zM47.415 91.109c24.131 0 43.694-19.562 43.694-43.694 0-24.131-19.562-43.694-43.694-43.693-24.131 0-43.694 19.562-43.693 43.693 0 24.131 19.562 43.694 43.693 43.694z" fill="black" stroke="transparent"></path></g><g transform="matrix(1,0,0,1,25.16115713754644,25.16115713754644)"><svg viewBox="0 0 44.5085984637969 44.5085984637969" height="44.5085984637969" width="44.5085984637969"><g><svg version="1.0" xmlns="http://www.w3.org/2000/svg" xmlns:xlink="http://www.w3.org/1999/xlink" x="0" y="0" viewBox="0 0 100 100" enable-background="new 0 0 100 100" xml:space="preserve" height="44.5085984637969" width="44.5085984637969" class="icon-cg-0" data-fill-palette-color="accent" id="SvgjsSvg6980"><path d="M100 50C100 77.614 77.614 100 50 100 22.386 100 0 77.614 0 50 0 22.386 22.386 0 50 0 77.614 0 100 22.386 100 50zM24.024 47.545c0.231-7.002 1.444-13.7 3.478-19.893l-16.703-0.019C7.412 33.56 5.328 40.327 4.941 47.545H24.024zM47.559 27.635H32.673c-2.218 6.213-3.523 12.898-3.77 19.91h18.655V27.635zM47.559 4.937c-5.256 4.698-9.693 10.769-12.899 17.772h12.899V4.937zM14.032 22.708H29.35c2.577-6.159 6.12-11.869 10.201-16.596C29.015 8.488 20.001 14.842 14.032 22.708zM95.059 47.545c-0.387-7.219-2.472-13.985-5.858-19.912l-16.705 0.019c2.035 6.193 3.248 12.891 3.479 19.893H95.059zM52.441 47.545h18.656c-0.247-7.012-1.553-13.697-3.771-19.91H52.441V47.545zM52.441 22.708h12.9c-3.207-7.003-7.644-13.074-12.9-17.772V22.708zM60.448 6.113C64.53 10.84 68.074 16.55 70.65 22.708h15.318C80 14.842 70.987 8.488 60.448 6.113zM4.941 52.455c0.387 7.217 2.471 13.985 5.858 19.91l16.703-0.018c-2.034-6.192-3.247-12.891-3.478-19.893H4.941zM47.559 52.455H28.903c0.247 7.013 1.552 13.697 3.77 19.91h14.886V52.455zM47.559 77.292H34.659c3.207 7.004 7.643 13.074 12.899 17.771V77.292zM39.551 93.887c-4.081-4.729-7.625-10.437-10.201-16.596H14.032C20.001 85.157 29.015 91.511 39.551 93.887zM75.974 52.455c-0.23 7.002-1.443 13.7-3.479 19.893l16.705 0.018c3.387-5.925 5.472-12.693 5.858-19.91H75.974zM52.441 72.365h14.886c2.218-6.213 3.523-12.897 3.771-19.91H52.441V72.365zM52.441 95.063c5.257-4.697 9.693-10.768 12.9-17.771h-12.9V95.063zM85.968 77.292H70.65c-2.576 6.159-6.12 11.867-10.202 16.596C70.987 91.511 80 85.157 85.968 77.292z" fill="black"></path></svg></g></svg></g></svg></g></svg></g><g></g></svg></g><defs><mask></mask></defs></svg><rect width="395.52" height="155.58312229874912" fill="black" stroke="none" visibility="hidden"></rect></g></mask><linearGradient x1="0" x2="1" y1="0.578" y2="0.595" id="1f3ee67a-f041-4466-b48a-3443db41f91d"><stop stop-color="#6ee2f5" offset="0"></stop><stop stop-color="#6454f0" offset="1"></stop></linearGradient><rect width="395.52" height="155.58312229874912" fill="url(#1f3ee67a-f041-4466-b48a-3443db41f91d)" mask="url(#ba7bfa64-97b4-4984-8d3c-eaba1b17f260)" data-fill-palette-color="primary"></rect><mask id="08b09dad-90e0-4ab3-935d-e772d295552f"><g id="SvgjsG6996"><svg viewBox="0 0 395.52 155.58312229874912" height="155.58312229874912" width="395.52"><g><svg viewBox="0 0 395.52 155.58312229874912" height="155.58312229874912" width="395.52"><g transform="matrix(1,0,0,1,0,114.31550213462249)"><svg viewBox="0 0 395.52 41.26762016412662" height="41.26762016412662" width="395.52"><g id="SvgjsG6995"><svg viewBox="0 0 395.52 41.26762016412662" height="41.26762016412662" width="395.52" id="SvgjsSvg6994"><g><svg viewBox="0 0 395.52 41.26762016412662" height="41.26762016412662" width="395.52"><g transform="matrix(1,0,0,1,0,0)"><svg width="395.52" viewBox="3.7 -35 341.18 35.6" height="41.26762016412662" data-palette-color="url(#1f3ee67a-f041-4466-b48a-3443db41f91d)"></svg></g></svg></g></svg></g></svg></g><g transform="matrix(1,0,0,1,150.3445436305551,0)"><svg viewBox="0 0 94.83091273888978 94.83091273888978" height="94.83091273888978" width="94.83091273888978"><g><svg></svg></g><g id="SvgjsG6993"><svg viewBox="0 0 94.83091273888978 94.83091273888978" height="94.83091273888978" width="94.83091273888978"><g><path d="M0 47.415c0-26.187 21.229-47.415 47.415-47.415 26.187 0 47.415 21.229 47.416 47.415 0 26.187-21.229 47.415-47.416 47.416-26.187 0-47.415-21.229-47.415-47.416zM47.415 91.109c24.131 0 43.694-19.562 43.694-43.694 0-24.131-19.562-43.694-43.694-43.693-24.131 0-43.694 19.562-43.693 43.693 0 24.131 19.562 43.694 43.693 43.694z" fill="white" stroke="transparent"></path></g><g transform="matrix(1,0,0,1,25.16115713754644,25.16115713754644)"><svg viewBox="0 0 44.5085984637969 44.5085984637969" height="44.5085984637969" width="44.5085984637969"><g><svg version="1.0" xmlns="http://www.w3.org/2000/svg" xmlns:xlink="http://www.w3.org/1999/xlink" x="0" y="0" viewBox="0 0 100 100" enable-background="new 0 0 100 100" xml:space="preserve" height="44.5085984637969" width="44.5085984637969" class="icon-cg-0" data-fill-palette-color="accent" id="SvgjsSvg6992"><path d="M100 50C100 77.614 77.614 100 50 100 22.386 100 0 77.614 0 50 0 22.386 22.386 0 50 0 77.614 0 100 22.386 100 50zM24.024 47.545c0.231-7.002 1.444-13.7 3.478-19.893l-16.703-0.019C7.412 33.56 5.328 40.327 4.941 47.545H24.024zM47.559 27.635H32.673c-2.218 6.213-3.523 12.898-3.77 19.91h18.655V27.635zM47.559 4.937c-5.256 4.698-9.693 10.769-12.899 17.772h12.899V4.937zM14.032 22.708H29.35c2.577-6.159 6.12-11.869 10.201-16.596C29.015 8.488 20.001 14.842 14.032 22.708zM95.059 47.545c-0.387-7.219-2.472-13.985-5.858-19.912l-16.705 0.019c2.035 6.193 3.248 12.891 3.479 19.893H95.059zM52.441 47.545h18.656c-0.247-7.012-1.553-13.697-3.771-19.91H52.441V47.545zM52.441 22.708h12.9c-3.207-7.003-7.644-13.074-12.9-17.772V22.708zM60.448 6.113C64.53 10.84 68.074 16.55 70.65 22.708h15.318C80 14.842 70.987 8.488 60.448 6.113zM4.941 52.455c0.387 7.217 2.471 13.985 5.858 19.91l16.703-0.018c-2.034-6.192-3.247-12.891-3.478-19.893H4.941zM47.559 52.455H28.903c0.247 7.013 1.552 13.697 3.77 19.91h14.886V52.455zM47.559 77.292H34.659c3.207 7.004 7.643 13.074 12.899 17.771V77.292zM39.551 93.887c-4.081-4.729-7.625-10.437-10.201-16.596H14.032C20.001 85.157 29.015 91.511 39.551 93.887zM75.974 52.455c-0.23 7.002-1.443 13.7-3.479 19.893l16.705 0.018c3.387-5.925 5.472-12.693 5.858-19.91H75.974zM52.441 72.365h14.886c2.218-6.213 3.523-12.897 3.771-19.91H52.441V72.365zM52.441 95.063c5.257-4.697 9.693-10.768 12.9-17.771h-12.9V95.063zM85.968 77.292H70.65c-2.576 6.159-6.12 11.867-10.202 16.596C70.987 91.511 80 85.157 85.968 77.292z" fill="white"></path></svg></g></svg></g></svg></g></svg></g><g></g></svg></g><defs><mask></mask></defs><mask><g id="SvgjsG6991"><svg viewBox="0 0 395.52 155.58312229874912" height="155.58312229874912" width="395.52"><g><svg viewBox="0 0 395.52 155.58312229874912" height="155.58312229874912" width="395.52"><g transform="matrix(1,0,0,1,0,114.31550213462249)"><svg viewBox="0 0 395.52 41.26762016412662" height="41.26762016412662" width="395.52"><g id="SvgjsG6990"><svg viewBox="0 0 395.52 41.26762016412662" height="41.26762016412662" width="395.52" id="SvgjsSvg6989"><g><svg viewBox="0 0 395.52 41.26762016412662" height="41.26762016412662" width="395.52"><g transform="matrix(1,0,0,1,0,0)"><svg width="395.52" viewBox="3.7 -35 341.18 35.6" height="41.26762016412662" data-palette-color="url(#1f3ee67a-f041-4466-b48a-3443db41f91d)"><path d="M3.7 0L3.7-34.4 31.5-34.4 31.5-26.15 14.75-26.15 14.75-20.25 29.15-20.25 29.15-12.35 14.75-12.35 14.75 0 3.7 0ZM37.05 0L37.05-34.4 48.1-34.4 48.1-8.8 65.75-8.8 65.75 0 37.05 0ZM70.4 0L70.4-34.4 100.15-34.4 100.15-26.15 81.45-26.15 81.45-21.4 97.45-21.4 97.45-13.5 81.45-13.5 81.45-8.25 100.5-8.25 100.5 0 70.4 0ZM106.49 0L106.49-34.4 136.24-34.4 136.24-26.15 117.54-26.15 117.54-21.4 133.54-21.4 133.54-13.5 117.54-13.5 117.54-8.25 136.59-8.25 136.59 0 106.49 0ZM173.64-25.6L162.39-25.6 162.39 0 151.34 0 151.34-25.6 140.04-25.6 140.04-34.4 173.64-34.4 173.64-25.6ZM211.74-35Q219.39-35 223.84-31.18 228.29-27.35 228.29-20.25L228.29-20.25 217.74-20.25Q217.74-23.25 216.16-25 214.59-26.75 211.69-26.75L211.69-26.75Q208.34-26.75 206.76-24.65 205.19-22.55 205.19-18.8L205.19-18.8 205.19-15.6Q205.19-11.9 206.76-9.78 208.34-7.65 211.59-7.65L211.59-7.65Q214.79-7.65 216.44-9.3 218.09-10.95 218.09-13.95L218.09-13.95 228.29-13.95Q228.29-6.9 223.96-3.15 219.64 0.6 211.74 0.6L211.74 0.6Q202.94 0.6 198.41-3.9 193.89-8.4 193.89-17.2L193.89-17.2Q193.89-26 198.41-30.5 202.94-35 211.74-35L211.74-35ZM251.33-35Q260.23-35 265.08-30.45 269.93-25.9 269.93-17.2L269.93-17.2Q269.93-8.5 265.08-3.95 260.23 0.6 251.33 0.6L251.33 0.6Q242.43 0.6 237.61-3.93 232.78-8.45 232.78-17.2L232.78-17.2Q232.78-25.95 237.61-30.48 242.43-35 251.33-35L251.33-35ZM251.33-26.75Q247.78-26.75 245.93-24.6 244.08-22.45 244.08-18.8L244.08-18.8 244.08-15.6Q244.08-11.95 245.93-9.8 247.78-7.65 251.33-7.65L251.33-7.65Q254.88-7.65 256.76-9.8 258.63-11.95 258.63-15.6L258.63-15.6 258.63-18.8Q258.63-22.45 256.76-24.6 254.88-26.75 251.33-26.75L251.33-26.75ZM308.53-23.85Q308.53-20.7 306.83-18.15 305.13-15.6 301.88-14.4L301.88-14.4 309.53 0 297.13 0 291.03-12.55 286.93-12.55 286.93 0 275.88 0 275.88-34.4 296.93-34.4Q300.63-34.4 303.25-32.98 305.88-31.55 307.2-29.13 308.53-26.7 308.53-23.85L308.53-23.85ZM297.28-23.4Q297.28-24.75 296.38-25.65 295.48-26.55 294.18-26.55L294.18-26.55 286.93-26.55 286.93-20.2 294.18-20.2Q295.48-20.2 296.38-21.13 297.28-22.05 297.28-23.4L297.28-23.4ZM314.78 0L314.78-34.4 344.53-34.4 344.53-26.15 325.83-26.15 325.83-21.4 341.83-21.4 341.83-13.5 325.83-13.5 325.83-8.25 344.88-8.25 344.88 0 314.78 0Z" opacity="1" transform="matrix(1,0,0,1,0,0)" fill="black" class="wordmark-text-0" id="SvgjsPath6988"></path></svg></g></svg></g></svg></g></svg></g><g transform="matrix(1,0,0,1,150.3445436305551,0)"><svg viewBox="0 0 94.83091273888978 94.83091273888978" height="94.83091273888978" width="94.83091273888978"><g><svg></svg></g><g id="SvgjsG6987"><svg viewBox="0 0 94.83091273888978 94.83091273888978" height="94.83091273888978" width="94.83091273888978"><g><path d="M0 47.415c0-26.187 21.229-47.415 47.415-47.415 26.187 0 47.415 21.229 47.416 47.415 0 26.187-21.229 47.415-47.416 47.416-26.187 0-47.415-21.229-47.415-47.416zM47.415 91.109c24.131 0 43.694-19.562 43.694-43.694 0-24.131-19.562-43.694-43.694-43.693-24.131 0-43.694 19.562-43.693 43.693 0 24.131 19.562 43.694 43.693 43.694z" fill="black" stroke="transparent"></path></g><g transform="matrix(1,0,0,1,25.16115713754644,25.16115713754644)"><svg viewBox="0 0 44.5085984637969 44.5085984637969" height="44.5085984637969" width="44.5085984637969"><g><svg version="1.0" xmlns="http://www.w3.org/2000/svg" xmlns:xlink="http://www.w3.org/1999/xlink" x="0" y="0" viewBox="0 0 100 100" enable-background="new 0 0 100 100" xml:space="preserve" height="44.5085984637969" width="44.5085984637969" class="icon-cg-0" data-fill-palette-color="accent" id="SvgjsSvg6986"><path d="M100 50C100 77.614 77.614 100 50 100 22.386 100 0 77.614 0 50 0 22.386 22.386 0 50 0 77.614 0 100 22.386 100 50zM24.024 47.545c0.231-7.002 1.444-13.7 3.478-19.893l-16.703-0.019C7.412 33.56 5.328 40.327 4.941 47.545H24.024zM47.559 27.635H32.673c-2.218 6.213-3.523 12.898-3.77 19.91h18.655V27.635zM47.559 4.937c-5.256 4.698-9.693 10.769-12.899 17.772h12.899V4.937zM14.032 22.708H29.35c2.577-6.159 6.12-11.869 10.201-16.596C29.015 8.488 20.001 14.842 14.032 22.708zM95.059 47.545c-0.387-7.219-2.472-13.985-5.858-19.912l-16.705 0.019c2.035 6.193 3.248 12.891 3.479 19.893H95.059zM52.441 47.545h18.656c-0.247-7.012-1.553-13.697-3.771-19.91H52.441V47.545zM52.441 22.708h12.9c-3.207-7.003-7.644-13.074-12.9-17.772V22.708zM60.448 6.113C64.53 10.84 68.074 16.55 70.65 22.708h15.318C80 14.842 70.987 8.488 60.448 6.113zM4.941 52.455c0.387 7.217 2.471 13.985 5.858 19.91l16.703-0.018c-2.034-6.192-3.247-12.891-3.478-19.893H4.941zM47.559 52.455H28.903c0.247 7.013 1.552 13.697 3.77 19.91h14.886V52.455zM47.559 77.292H34.659c3.207 7.004 7.643 13.074 12.899 17.771V77.292zM39.551 93.887c-4.081-4.729-7.625-10.437-10.201-16.596H14.032C20.001 85.157 29.015 91.511 39.551 93.887zM75.974 52.455c-0.23 7.002-1.443 13.7-3.479 19.893l16.705 0.018c3.387-5.925 5.472-12.693 5.858-19.91H75.974zM52.441 72.365h14.886c2.218-6.213 3.523-12.897 3.771-19.91H52.441V72.365zM52.441 95.063c5.257-4.697 9.693-10.768 12.9-17.771h-12.9V95.063zM85.968 77.292H70.65c-2.576 6.159-6.12 11.867-10.202 16.596C70.987 91.511 80 85.157 85.968 77.292z" fill="black"></path></svg></g></svg></g></svg></g></svg></g><g></g></svg></g><defs><mask></mask></defs></svg><rect width="395.52" height="155.58312229874912" fill="black" stroke="none" visibility="hidden"></rect></g></mask></svg><rect width="395.52" height="155.58312229874912" fill="black" stroke="none" visibility="hidden"></rect></g></mask><linearGradient x1="0.054" x2="0.941" y1="0.5" y2="0.5" id="d0632303-d06c-4fb7-827f-7bc110340068"><stop stop-color="#0f3054" offset="0"></stop><stop stop-color="#3b8dcb" offset="0.498"></stop><stop stop-color="#0f3054" offset="1"></stop></linearGradient><rect width="395.52" height="155.58312229874912" fill="url(#d0632303-d06c-4fb7-827f-7bc110340068)" mask="url(#08b09dad-90e0-4ab3-935d-e772d295552f)" data-fill-palette-color="accent"></rect></svg><rect width="395.52" height="155.58312229874912" fill="none" stroke="none" visibility="hidden"></rect></g></svg></g></svg>